<mxfile host="app.diagrams.net" modified="2023-05-30T14:55:21.960Z" agent="Mozilla/5.0 (X11; Linux x86_64) AppleWebKit/537.36 (KHTML, like Gecko) Chrome/102.0.0.0 Safari/537.36" etag="K3sNnuosLU58dz5YmjBV" version="21.3.5" type="github">
  <diagram name="Página-1" id="qMufFm1s8ViJ3Arri04z">
    <mxGraphModel dx="793" dy="469" grid="1" gridSize="10" guides="1" tooltips="1" connect="1" arrows="1" fold="1" page="1" pageScale="1" pageWidth="827" pageHeight="1169" background="#f4ffeb" math="0" shadow="0">
      <root>
        <mxCell id="0" />
        <mxCell id="1" parent="0" />
        <mxCell id="RQ7MHASQD_3gVbupuhmT-42" value="" style="edgeStyle=orthogonalEdgeStyle;rounded=0;orthogonalLoop=1;jettySize=auto;html=1;" edge="1" parent="1" source="RQ7MHASQD_3gVbupuhmT-15" target="RQ7MHASQD_3gVbupuhmT-35">
          <mxGeometry relative="1" as="geometry" />
        </mxCell>
        <mxCell id="RQ7MHASQD_3gVbupuhmT-15" value="&lt;font color=&quot;#f4ffeb&quot;&gt;Vírus&lt;/font&gt;" style="shape=table;startSize=30;container=1;collapsible=1;childLayout=tableLayout;fixedRows=1;rowLines=0;fontStyle=1;align=center;resizeLast=1;html=1;fillColor=#03418c;" vertex="1" parent="1">
          <mxGeometry x="190" y="90" width="180" height="90" as="geometry">
            <mxRectangle x="250" y="180" width="70" height="30" as="alternateBounds" />
          </mxGeometry>
        </mxCell>
        <mxCell id="RQ7MHASQD_3gVbupuhmT-16" value="" style="shape=tableRow;horizontal=0;startSize=0;swimlaneHead=0;swimlaneBody=0;fillColor=#8C0341;collapsible=0;dropTarget=0;points=[[0,0.5],[1,0.5]];portConstraint=eastwest;top=0;left=0;right=0;bottom=1;" vertex="1" parent="RQ7MHASQD_3gVbupuhmT-15">
          <mxGeometry y="30" width="180" height="30" as="geometry" />
        </mxCell>
        <mxCell id="RQ7MHASQD_3gVbupuhmT-17" value="&lt;font color=&quot;#f4ffeb&quot;&gt;PK&lt;/font&gt;" style="shape=partialRectangle;connectable=0;fillColor=none;top=0;left=0;bottom=0;right=0;fontStyle=1;overflow=hidden;whiteSpace=wrap;html=1;strokeColor=#F4FFEB;" vertex="1" parent="RQ7MHASQD_3gVbupuhmT-16">
          <mxGeometry width="30" height="30" as="geometry">
            <mxRectangle width="30" height="30" as="alternateBounds" />
          </mxGeometry>
        </mxCell>
        <mxCell id="RQ7MHASQD_3gVbupuhmT-18" value="&lt;font color=&quot;#f4ffeb&quot;&gt;Nome&lt;/font&gt;" style="shape=partialRectangle;connectable=0;fillColor=none;top=0;left=0;bottom=0;right=0;align=left;spacingLeft=6;fontStyle=5;overflow=hidden;whiteSpace=wrap;html=1;" vertex="1" parent="RQ7MHASQD_3gVbupuhmT-16">
          <mxGeometry x="30" width="150" height="30" as="geometry">
            <mxRectangle width="150" height="30" as="alternateBounds" />
          </mxGeometry>
        </mxCell>
        <mxCell id="RQ7MHASQD_3gVbupuhmT-19" value="" style="shape=tableRow;horizontal=0;startSize=0;swimlaneHead=0;swimlaneBody=0;fillColor=none;collapsible=0;dropTarget=0;points=[[0,0.5],[1,0.5]];portConstraint=eastwest;top=0;left=0;right=0;bottom=0;" vertex="1" parent="RQ7MHASQD_3gVbupuhmT-15">
          <mxGeometry y="60" width="180" height="30" as="geometry" />
        </mxCell>
        <mxCell id="RQ7MHASQD_3gVbupuhmT-20" value="" style="shape=partialRectangle;connectable=0;fillColor=#e3fecd;top=0;left=0;bottom=0;right=0;editable=1;overflow=hidden;whiteSpace=wrap;html=1;" vertex="1" parent="RQ7MHASQD_3gVbupuhmT-19">
          <mxGeometry width="30" height="30" as="geometry">
            <mxRectangle width="30" height="30" as="alternateBounds" />
          </mxGeometry>
        </mxCell>
        <mxCell id="RQ7MHASQD_3gVbupuhmT-21" value="" style="shape=partialRectangle;connectable=0;fillColor=#e3fecd;top=0;left=0;bottom=0;right=0;align=left;spacingLeft=6;overflow=hidden;whiteSpace=wrap;html=1;" vertex="1" parent="RQ7MHASQD_3gVbupuhmT-19">
          <mxGeometry x="30" width="150" height="30" as="geometry">
            <mxRectangle width="150" height="30" as="alternateBounds" />
          </mxGeometry>
        </mxCell>
        <mxCell id="RQ7MHASQD_3gVbupuhmT-35" value="&lt;font color=&quot;#f4ffeb&quot;&gt;Genoma&lt;/font&gt;" style="shape=table;startSize=30;container=1;collapsible=1;childLayout=tableLayout;fixedRows=1;rowLines=0;fontStyle=1;align=center;resizeLast=1;html=1;fillColor=#03418c;" vertex="1" parent="1">
          <mxGeometry x="190" y="260" width="180" height="90" as="geometry">
            <mxRectangle x="250" y="180" width="70" height="30" as="alternateBounds" />
          </mxGeometry>
        </mxCell>
        <mxCell id="RQ7MHASQD_3gVbupuhmT-36" value="" style="shape=tableRow;horizontal=0;startSize=0;swimlaneHead=0;swimlaneBody=0;fillColor=#8C0341;collapsible=0;dropTarget=0;points=[[0,0.5],[1,0.5]];portConstraint=eastwest;top=0;left=0;right=0;bottom=1;" vertex="1" parent="RQ7MHASQD_3gVbupuhmT-35">
          <mxGeometry y="30" width="180" height="30" as="geometry" />
        </mxCell>
        <mxCell id="RQ7MHASQD_3gVbupuhmT-37" value="&lt;font color=&quot;#f4ffeb&quot;&gt;Data&lt;/font&gt;" style="shape=partialRectangle;connectable=0;fillColor=none;top=0;left=0;bottom=0;right=0;fontStyle=1;overflow=hidden;whiteSpace=wrap;html=1;strokeColor=#F4FFEB;" vertex="1" parent="RQ7MHASQD_3gVbupuhmT-36">
          <mxGeometry width="90" height="30" as="geometry">
            <mxRectangle width="90" height="30" as="alternateBounds" />
          </mxGeometry>
        </mxCell>
        <mxCell id="RQ7MHASQD_3gVbupuhmT-38" value="&lt;font color=&quot;#f4ffeb&quot;&gt;Identificador&lt;/font&gt;" style="shape=partialRectangle;connectable=0;fillColor=none;top=0;left=0;bottom=0;right=0;align=left;spacingLeft=6;fontStyle=5;overflow=hidden;whiteSpace=wrap;html=1;" vertex="1" parent="RQ7MHASQD_3gVbupuhmT-36">
          <mxGeometry x="90" width="90" height="30" as="geometry">
            <mxRectangle width="90" height="30" as="alternateBounds" />
          </mxGeometry>
        </mxCell>
        <mxCell id="RQ7MHASQD_3gVbupuhmT-39" value="" style="shape=tableRow;horizontal=0;startSize=0;swimlaneHead=0;swimlaneBody=0;fillColor=none;collapsible=0;dropTarget=0;points=[[0,0.5],[1,0.5]];portConstraint=eastwest;top=0;left=0;right=0;bottom=0;" vertex="1" parent="RQ7MHASQD_3gVbupuhmT-35">
          <mxGeometry y="60" width="180" height="30" as="geometry" />
        </mxCell>
        <mxCell id="RQ7MHASQD_3gVbupuhmT-40" value="" style="shape=partialRectangle;connectable=0;fillColor=#e3fecd;top=0;left=0;bottom=0;right=0;editable=1;overflow=hidden;whiteSpace=wrap;html=1;" vertex="1" parent="RQ7MHASQD_3gVbupuhmT-39">
          <mxGeometry width="90" height="30" as="geometry">
            <mxRectangle width="90" height="30" as="alternateBounds" />
          </mxGeometry>
        </mxCell>
        <mxCell id="RQ7MHASQD_3gVbupuhmT-41" value="" style="shape=partialRectangle;connectable=0;fillColor=#e3fecd;top=0;left=0;bottom=0;right=0;align=left;spacingLeft=6;overflow=hidden;whiteSpace=wrap;html=1;" vertex="1" parent="RQ7MHASQD_3gVbupuhmT-39">
          <mxGeometry x="90" width="90" height="30" as="geometry">
            <mxRectangle width="90" height="30" as="alternateBounds" />
          </mxGeometry>
        </mxCell>
        <mxCell id="RQ7MHASQD_3gVbupuhmT-44" value="0:1" style="text;html=1;align=center;verticalAlign=middle;resizable=0;points=[];autosize=1;strokeColor=none;fillColor=none;" vertex="1" parent="1">
          <mxGeometry x="330" y="180" width="40" height="30" as="geometry" />
        </mxCell>
        <mxCell id="RQ7MHASQD_3gVbupuhmT-45" value="1:1" style="text;html=1;align=center;verticalAlign=middle;resizable=0;points=[];autosize=1;strokeColor=none;fillColor=none;" vertex="1" parent="1">
          <mxGeometry x="330" y="230" width="40" height="30" as="geometry" />
        </mxCell>
      </root>
    </mxGraphModel>
  </diagram>
</mxfile>
